<svg id="visual" viewBox="0 0 1920 300" width="1920" height="300" xmlns="http://www.w3.org/2000/svg" xmlns:xlink="http://www.w3.org/1999/xlink" version="1.1"><rect x="0" y="0" width="1920" height="300" fill="#fafafa"></rect><path d="M0 130L45.7 130.5C91.3 131 182.7 132 274.2 142C365.7 152 457.3 171 548.8 170.8C640.3 170.7 731.7 151.3 823 143.3C914.3 135.3 1005.7 138.7 1097 142.7C1188.3 146.7 1279.7 151.3 1371.2 153.8C1462.7 156.3 1554.3 156.7 1645.8 160.5C1737.3 164.3 1828.7 171.7 1874.3 175.3L1920 179L1920 301L1874.3 301C1828.7 301 1737.3 301 1645.8 301C1554.3 301 1462.7 301 1371.2 301C1279.7 301 1188.3 301 1097 301C1005.7 301 914.3 301 823 301C731.7 301 640.3 301 548.8 301C457.3 301 365.7 301 274.2 301C182.7 301 91.3 301 45.7 301L0 301Z" fill="#fff" stroke-linecap="round" stroke-linejoin="miter"></path></svg>